<svg xmlns="http://www.w3.org/2000/svg"  viewBox="0 0 24 24" width="24px" height="24px"><path d="M 6.285156 3 C 5.542969 2.980469 4.789063 3.230469 4.203125 3.71875 C 3.492188 4.3125 3.0625 5.242188 3 6.195313 C 3.066406 6.605469 3.203125 7.003906 3.417969 7.351563 C 3.636719 7.707031 3.929688 8.011719 4.253906 8.257813 C 4.679688 8.582031 5.171875 8.8125 5.683594 8.925781 C 6.070313 9.011719 6.472656 9.035156 6.851563 8.929688 C 7.128906 8.851563 7.382813 8.710938 7.632813 8.566406 C 8.1875 8.246094 8.726563 7.898438 9.257813 7.527344 C 9.476563 7.375 9.699219 7.210938 9.839844 6.972656 C 10.042969 6.628906 10.039063 6.171875 9.90625 5.789063 C 9.773438 5.40625 9.527344 5.078125 9.273438 4.773438 C 8.652344 4.042969 7.910156 3.378906 7.019531 3.117188 C 6.78125 3.046875 6.53125 3.007813 6.285156 3 Z M 17.714844 3 C 17.46875 3.011719 17.21875 3.046875 16.980469 3.117188 C 16.089844 3.378906 15.347656 4.042969 14.730469 4.773438 C 14.472656 5.078125 14.226563 5.40625 14.09375 5.789063 C 13.960938 6.171875 13.957031 6.628906 14.160156 6.972656 C 14.304688 7.210938 14.527344 7.375 14.746094 7.527344 C 15.273438 7.898438 15.816406 8.242188 16.371094 8.566406 C 16.621094 8.710938 16.875 8.851563 17.144531 8.929688 C 17.527344 9.035156 17.929688 9.015625 18.316406 8.929688 C 18.828125 8.8125 19.320313 8.582031 19.746094 8.257813 C 20.070313 8.011719 20.363281 7.707031 20.582031 7.351563 C 20.796875 7.003906 20.933594 6.605469 21 6.195313 C 20.9375 5.238281 20.507813 4.3125 19.796875 3.71875 C 19.210938 3.230469 18.457031 2.976563 17.714844 3 Z M 7.707031 5 C 7.875 5.015625 8.042969 5.117188 8.1875 5.21875 C 8.378906 5.351563 8.433594 5.460938 8.433594 5.460938 C 8.5625 5.664063 8.742188 5.824219 8.867188 6.03125 C 8.992188 6.234375 9.054688 6.527344 8.929688 6.734375 C 8.8125 6.929688 8.296875 6.976563 8.082031 6.992188 C 7.957031 7.003906 7.3125 6.792969 7.117188 6.460938 C 6.980469 6.226563 7.015625 6.007813 7 5.757813 C 6.988281 5.550781 7.125 5.375 7.257813 5.234375 C 7.34375 5.148438 7.433594 5.058594 7.539063 5.023438 C 7.597656 5.003906 7.652344 4.996094 7.707031 5 Z M 16.292969 5 C 16.347656 4.996094 16.402344 5.003906 16.457031 5.023438 C 16.570313 5.058594 16.65625 5.148438 16.742188 5.234375 C 16.875 5.375 17.011719 5.550781 17 5.757813 C 16.984375 6.007813 17.019531 6.226563 16.882813 6.460938 C 16.6875 6.792969 16.042969 7.003906 15.917969 6.992188 C 15.703125 6.976563 15.1875 6.929688 15.066406 6.734375 C 14.941406 6.527344 15.007813 6.234375 15.132813 6.03125 C 15.257813 5.824219 15.4375 5.664063 15.566406 5.460938 C 15.566406 5.460938 15.621094 5.351563 15.8125 5.21875 C 15.960938 5.117188 16.125 5.015625 16.292969 5 Z M 0 13 L 0 14 C 4 14 4 16.65625 4 19 C 4 19 4.28125 18 6 18 C 7.085938 18 8.796875 18.496094 10 19 C 11.875 19.78125 12 22 12 22 C 12 22 12.125 19.78125 14 19 C 15.203125 18.496094 16.914063 18 18 18 C 19.875 18 20 19 20 19 C 20 16.65625 20 14 24 14 L 24 13 L 16 13 C 16 13 14.96875 15 13 15 L 13 13 L 12 14 L 11 13 L 11 15 C 9.03125 15 8 13 8 13 Z"/></svg>